<?xml version="1.0" ?>
<!-- Uploaded to: SVG Repo, www.svgrepo.com, Generator: SVG Repo Mixer Tools -->
<svg fill="#000000" width="800px" height="800px" viewBox="0 0 64 64" id="Layer_1_1_" version="1.1" xml:space="preserve" xmlns="http://www.w3.org/2000/svg" xmlns:xlink="http://www.w3.org/1999/xlink">
<g>
<path d="M58,25H41.988l1.466-2.077C45.12,20.564,46,17.792,46,14.904C46,7.237,39.763,1,32.096,1h-0.191   C24.237,1,18,7.237,18,14.904c0,2.888,0.88,5.66,2.545,8.018L22.012,25H6c-2.757,0-5,2.243-5,5v28c0,2.757,2.243,5,5,5h52   c2.757,0,5-2.243,5-5V30C63,27.243,60.757,25,58,25z M20,14.904C20,8.34,25.34,3,31.904,3h0.191C38.66,3,44,8.34,44,14.904   c0,2.472-0.754,4.846-2.18,6.865l-9.06,12.836c-0.35,0.494-1.173,0.493-1.521,0.001l-9.062-12.838   C20.754,19.75,20,17.376,20,14.904z M9,42.069c3.612,0.453,6.477,3.319,6.931,6.931H9V42.069z M9,51h4v4H9V51z M15,51h4v4h-4V51z    M27,49h-4v-4h4V49z M21,51h4v4h-4V51z M27,51h4v4h-4V51z M39,49h-4v-4h4V49z M33,51h4v4h-4V51z M39,51h4v4h-4V51z M45,51h4v4h-4   V51z M51,51h4v4h-4V51z M55,49h-8v-4h8V49z M55,37h-6v-4h6V37z M55,39v4H45v6h-4v-6h-8v6h-4v-6h-8v6h-3.051   c-0.471-4.717-4.232-8.479-8.949-8.949V39h6v-6h4v6h8v-6h0.659l1.948,2.76C30.155,36.536,31.05,37,32,37s1.845-0.464,2.395-1.241   L35,34.901V39h8v-6h4v6H55z M9,37v-4h4v4H9z M21,33h4v4h-4V33z M41,37h-4v-4h4V37z M61,58c0,1.654-1.346,3-3,3H6   c-1.654,0-3-1.346-3-3V30c0-1.654,1.346-3,3-3h17.423l2.823,4H9c-1.103,0-2,0.897-2,2v22c0,1.103,0.897,2,2,2h46   c1.103,0,2-0.897,2-2V33c0-1.103-0.897-2-2-2H37.753l2.823-4H58c1.654,0,3,1.346,3,3V58z"/>
<path d="M32,25c5.514,0,10-4.486,10-10S37.514,5,32,5S22,9.486,22,15S26.486,25,32,25z M32,7c4.411,0,8,3.589,8,8s-3.589,8-8,8   s-8-3.589-8-8S27.589,7,32,7z"/>
</g>
</svg>