<?xml version="1.0" encoding="utf-8"?><!-- Uploaded to: SVG Repo, www.svgrepo.com, Generator: SVG Repo Mixer Tools -->
<svg width="800px" height="800px" viewBox="0 0 24 24" fill="none" xmlns="http://www.w3.org/2000/svg">
<path fill-rule="evenodd" clip-rule="evenodd" d="M23 12C23 18.0751 18.0751 23 12 23C5.92487 23 1 18.0751 1 12C1 5.92487 5.92487 1 12 1C18.0751 1 23 5.92487 23 12ZM21 12C21 16.9706 16.9706 21 12 21C11.8075 21 11.6164 20.994 11.4268 20.982L15.3516 14.1842C15.7616 13.5562 16 12.806 16 12C16 11.2714 15.8052 10.5883 15.4649 10H20.777C20.9229 10.6432 21 11.3126 21 12ZM3 12C3 16.0439 5.66703 19.4648 9.33808 20.5998L11.9938 16C10.4369 15.9976 9.08858 15.1058 8.4297 13.8055L4.5075 7.01205C3.55514 8.43975 3 10.155 3 12ZM5.88442 5.39694C7.48983 3.90934 9.63872 3 12 3C15.5337 3 18.5918 5.03656 20.0645 8H12C10.5219 8 9.23103 8.80174 8.53857 9.99407L5.88442 5.39694ZM10.2633 12.9925L10.2681 12.9897L10.1968 12.8662C10.0707 12.6041 10 12.3103 10 12C10 10.8954 10.8954 10 12 10C13.1046 10 14 10.8954 14 12C14 12.361 13.9043 12.6997 13.737 12.9921L13.7321 12.9893L13.6529 13.1263C13.2928 13.6538 12.6868 14 12 14C11.2566 14 10.608 13.5945 10.2633 12.9925Z" fill="#0F0F0F"/>
</svg>